<?xml version="1.0" standalone="no"?>
<!DOCTYPE svg PUBLIC "-//W3C//DTD SVG 20010904//EN"
 "http://www.w3.org/TR/2001/REC-SVG-20010904/DTD/svg10.dtd">
<svg version="1.0" xmlns="http://www.w3.org/2000/svg"
 width="512.000000pt" height="512.000000pt" viewBox="0 0 512.000000 512.000000"
 preserveAspectRatio="xMidYMid meet">
<metadata>
Created by potrace 1.11, written by Peter Selinger 2001-2013
</metadata>
<g transform="translate(0.000000,512.000000) scale(0.100000,-0.100000)"
fill="#000000" stroke="none">
<path d="M3842 4490 c-18 -15 -54 -47 -79 -70 l-47 -41 -1 -142 c0 -92 3 -151
11 -167 7 -14 186 -306 399 -650 213 -344 395 -637 404 -652 9 -15 68 -111
131 -213 l115 -185 142 0 c131 0 142 1 136 18 -3 9 -9 22 -13 27 -6 8 -129
232 -215 390 -12 22 -96 173 -185 335 -90 162 -173 313 -185 335 -12 22 -85
155 -162 295 -77 140 -154 280 -170 310 -79 145 -236 426 -241 432 -4 4 -22
-6 -40 -22z"/>
<path d="M3466 4299 c-71 -44 -130 -79 -131 -79 -4 0 -349 -206 -395 -235 -19
-12 -112 -68 -205 -124 l-171 -101 -74 -153 c-40 -83 -133 -272 -205 -419 -73
-148 -130 -268 -126 -269 8 -1 538 -1 572 0 l26 1 -1 226 c-1 124 1 229 4 233
8 11 116 93 485 371 193 145 351 264 353 266 4 3 4 355 0 359 -2 1 -61 -33
-132 -76z"/>
<path d="M2000 2792 c-6 -2 -10 -86 -10 -223 l0 -219 -57 -1 c-32 -1 -80 -3
-108 -4 -27 -2 -111 -6 -186 -9 l-137 -6 3 50 c1 29 -2 54 -9 58 -6 4 -51 7
-101 8 -358 6 -527 6 -532 0 -4 -4 -7 -26 -8 -49 l-1 -42 -115 -3 -115 -3 1
-142 0 -142 440 -5 440 -5 0 -55 0 -55 -440 -5 -440 -5 0 -185 0 -185 1262 -1
1262 -1 1 371 0 371 -137 240 c-75 132 -138 242 -140 244 -4 6 -858 8 -873 3z
m796 -185 c16 -23 63 -90 103 -148 l72 -105 0 -115 c0 -63 0 -129 -1 -146 l0
-33 -409 0 -409 0 0 295 0 295 306 0 307 -1 31 -42z"/>
<path d="M4849 2167 c-1 -7 -3 -28 -4 -47 -10 -165 -61 -287 -161 -385 -85
-85 -242 -160 -349 -167 -19 -1 -32 -5 -27 -8 18 -16 210 -76 272 -86 19 -3
51 -9 70 -13 39 -8 180 -6 221 3 99 23 175 87 215 184 26 63 28 76 27 207 -1
114 -5 157 -25 230 l-24 90 -107 2 c-76 1 -107 -2 -108 -10z"/>
<path d="M290 1283 c0 -7 -10 -13 -21 -13 -45 0 -151 -63 -190 -112 -152 -192
-65 -464 168 -527 22 -6 43 -17 46 -24 3 -9 332 -12 1565 -11 1444 1 1561 2
1577 17 9 9 24 17 34 17 25 0 110 46 144 78 39 36 76 102 91 159 42 158 -55
337 -210 388 -32 11 -63 25 -69 31 -16 18 -3135 15 -3135 -3z m1689 -183 c32
-16 69 -60 77 -87 7 -25 4 -24 129 -24 227 0 223 0 230 22 9 28 60 78 92 90
35 13 88 11 126 -5 36 -14 87 -69 87 -92 0 -14 16 -15 165 -15 175 0 195 1
195 15 0 21 47 74 81 91 36 19 108 19 146 0 121 -61 119 -236 -5 -296 -76 -38
-178 -3 -214 72 l-16 35 -171 -1 -172 0 -22 -40 c-61 -110 -223 -107 -286 5
l-20 36 -165 -1 -166 0 -18 -34 c-9 -19 -34 -48 -55 -65 -34 -27 -47 -31 -102
-31 -56 0 -68 4 -102 31 -21 17 -47 46 -57 65 l-19 35 -153 0 c-137 0 -155 -2
-159 -17 -10 -31 -46 -69 -84 -88 -77 -40 -180 -5 -217 73 l-16 32 -193 0
-193 -1 -16 -31 c-8 -18 -31 -44 -51 -60 -50 -38 -135 -40 -187 -5 -95 65 -97
204 -4 272 78 58 212 21 247 -68 9 -25 6 -25 154 -25 248 0 245 0 255 25 28
67 89 101 168 94 44 -4 61 -11 89 -38 18 -19 36 -44 39 -56 6 -22 11 -23 115
-24 60 0 130 -1 156 -2 43 -1 49 2 65 32 55 98 154 131 247 81z"/>
<path d="M1829 1011 c-71 -71 0 -183 96 -151 99 33 73 180 -32 180 -25 0 -43
-8 -64 -29z"/>
<path d="M485 1010 c-43 -48 -34 -109 22 -135 28 -14 40 -15 63 -5 60 25 69
111 15 146 -28 18 -81 15 -100 -6z"/>
<path d="M1198 1010 c-71 -55 -7 -172 77 -140 38 14 54 38 55 78 0 68 -78 105
-132 62z"/>
<path d="M2523 1018 c-29 -14 -47 -67 -34 -99 12 -34 33 -49 71 -54 26 -3 39
2 61 25 71 70 -8 172 -98 128z"/>
<path d="M3176 1005 c-33 -30 -35 -81 -6 -113 12 -12 24 -22 28 -23 4 0 15 -2
26 -4 47 -9 100 47 91 96 -6 33 -50 69 -84 69 -16 0 -40 -11 -55 -25z"/>
</g>
</svg>
